<svg preserveAspectRatio="none" width="100%" height="100%" overflow="visible" style="display: block;" viewBox="0 0 48 38" fill="none" xmlns="http://www.w3.org/2000/svg">
<path id="&#226;&#128;&#157;" d="M2.53846 38L8.65385 22.2918C6.19231 21.6758 4.11538 20.3668 2.42308 18.3647C0.807692 16.2857 0 13.9372 0 11.3191C0 8.16211 1.11538 5.50557 3.34615 3.34954C5.57692 1.11651 8.23077 0 11.3077 0C14.3846 0 17 1.11651 19.1538 3.34954C21.3846 5.50557 22.5 8.16211 22.5 11.3191C22.5 12.7052 22.2692 14.0527 21.8077 15.3617L12.9231 38H2.53846ZM28.0385 38L34.1538 22.2918C31.6923 21.6758 29.6154 20.3668 27.9231 18.3647C26.3077 16.2857 25.5 13.9372 25.5 11.3191C25.5 8.16211 26.6154 5.50557 28.8462 3.34954C31.0769 1.11651 33.7308 0 36.8077 0C39.8846 0 42.5 1.11651 44.6538 3.34954C46.8846 5.50557 48 8.16211 48 11.3191C48 12.7052 47.7692 14.0527 47.3077 15.3617L38.4231 38H28.0385Z" fill="var(--fill-0, #7097C1)"/>
</svg>
