<svg preserveAspectRatio="none" width="100%" height="100%" overflow="visible" style="display: block;" viewBox="0 0 62 58" fill="none" xmlns="http://www.w3.org/2000/svg">
<g id="solar:pause-bold">
<rect width="62" height="58" rx="4" fill="var(--fill-0, #214D7C)"/>
<path id="Vector" d="M11 17C11 13.228 11 11.344 12.172 10.172C13.344 9 15.228 9 19 9C22.772 9 24.656 9 25.828 10.172C27 11.344 27 13.228 27 17V41C27 44.772 27 46.656 25.828 47.828C24.656 49 22.772 49 19 49C15.228 49 13.344 49 12.172 47.828C11 46.656 11 44.772 11 41V17ZM35 17C35 13.228 35 11.344 36.172 10.172C37.344 9 39.228 9 43 9C46.772 9 48.656 9 49.828 10.172C51 11.344 51 13.228 51 17V41C51 44.772 51 46.656 49.828 47.828C48.656 49 46.772 49 43 49C39.228 49 37.344 49 36.172 47.828C35 46.656 35 44.772 35 41V17Z" fill="var(--fill-0, #E5EDEF)"/>
</g>
</svg>
