<svg preserveAspectRatio="none" width="100%" height="100%" overflow="visible" style="display: block;" viewBox="0 0 36.6146 36.6146" fill="none" xmlns="http://www.w3.org/2000/svg">
<path id="Vector" d="M13.5417 27.0833C9.75694 27.0833 6.55417 25.7722 3.93333 23.15C1.3125 20.5278 0.00138999 17.325 1.10229e-06 13.5417C-0.00138779 9.75833 1.30972 6.55556 3.93333 3.93333C6.55695 1.31111 9.75972 0 13.5417 0C17.3236 0 20.5271 1.31111 23.1521 3.93333C25.7771 6.55556 27.0875 9.75833 27.0833 13.5417C27.0833 15.0694 26.8403 16.5104 26.3542 17.8646C25.8681 19.2187 25.2083 20.4167 24.375 21.4583L36.0417 33.125C36.4236 33.5069 36.6146 33.9931 36.6146 34.5833C36.6146 35.1736 36.4236 35.6597 36.0417 36.0417C35.6597 36.4236 35.1736 36.6146 34.5833 36.6146C33.9931 36.6146 33.5069 36.4236 33.125 36.0417L21.4583 24.375C20.4167 25.2083 19.2188 25.8681 17.8646 26.3542C16.5104 26.8403 15.0694 27.0833 13.5417 27.0833ZM13.5417 22.9167C16.1458 22.9167 18.3597 22.0056 20.1833 20.1833C22.0069 18.3611 22.9181 16.1472 22.9167 13.5417C22.9153 10.9361 22.0042 8.72292 20.1833 6.90208C18.3625 5.08125 16.1486 4.16944 13.5417 4.16667C10.9347 4.16389 8.72153 5.07569 6.90208 6.90208C5.08264 8.72847 4.17083 10.9417 4.16667 13.5417C4.1625 16.1417 5.07431 18.3556 6.90208 20.1833C8.72986 22.0111 10.9431 22.9222 13.5417 22.9167Z" fill="var(--fill-0, #FFCB21)"/>
</svg>
