<svg preserveAspectRatio="none" width="100%" height="100%" overflow="visible" style="display: block;" viewBox="0 0 30 30" fill="none" xmlns="http://www.w3.org/2000/svg">
<g id="mdi:linkedin">
<path id="Vector" d="M24.7222 2.5C25.4589 2.5 26.1655 2.79266 26.6864 3.31359C27.2073 3.83453 27.5 4.54107 27.5 5.27778V24.7222C27.5 25.4589 27.2073 26.1655 26.6864 26.6864C26.1655 27.2073 25.4589 27.5 24.7222 27.5H5.27778C4.54107 27.5 3.83453 27.2073 3.31359 26.6864C2.79266 26.1655 2.5 25.4589 2.5 24.7222V5.27778C2.5 4.54107 2.79266 3.83453 3.31359 3.31359C3.83453 2.79266 4.54107 2.5 5.27778 2.5H24.7222ZM24.0278 24.0278V16.6667C24.0278 15.4658 23.5507 14.3142 22.7016 13.465C21.8525 12.6159 20.7008 12.1389 19.5 12.1389C18.3194 12.1389 16.9444 12.8611 16.2778 13.9444V12.4028H12.4028V24.0278H16.2778V17.1806C16.2778 16.1111 17.1389 15.2361 18.2083 15.2361C18.724 15.2361 19.2186 15.441 19.5833 15.8056C19.9479 16.1703 20.1528 16.6649 20.1528 17.1806V24.0278H24.0278ZM7.88889 10.2222C8.50773 10.2222 9.10122 9.97639 9.5388 9.5388C9.97639 9.10122 10.2222 8.50773 10.2222 7.88889C10.2222 6.59722 9.18056 5.54167 7.88889 5.54167C7.26637 5.54167 6.66934 5.78896 6.22915 6.22915C5.78896 6.66934 5.54167 7.26637 5.54167 7.88889C5.54167 9.18056 6.59722 10.2222 7.88889 10.2222ZM9.81944 24.0278V12.4028H5.97222V24.0278H9.81944Z" fill="var(--fill-0, #FFCB21)"/>
</g>
</svg>
