<svg preserveAspectRatio="none" width="100%" height="100%" overflow="visible" style="display: block;" viewBox="0 0 48 38" fill="none" xmlns="http://www.w3.org/2000/svg">
<path id="&#226;&#128;&#156;" d="M11.3077 38C8.23077 38 5.57692 36.8835 3.34615 34.6505C1.11538 32.4174 0 29.7609 0 26.6809C0 25.9878 0.115385 25.2178 0.346154 24.3708C0.576923 23.5238 0.846154 22.6383 1.15385 21.7143L9.57692 0H19.9615L13.8462 15.8237C16.3077 16.3627 18.3462 17.6332 19.9615 19.6353C21.6538 21.6373 22.5 23.9858 22.5 26.6809C22.5 29.7609 21.3846 32.4174 19.1538 34.6505C17 36.8835 14.3846 38 11.3077 38ZM36.8077 38C33.7308 38 31.0769 36.8835 28.8462 34.6505C26.6923 32.4174 25.6154 29.7609 25.6154 26.6809C25.6154 25.9878 25.6923 25.2948 25.8462 24.6018C26 23.9088 26.1923 23.2543 26.4231 22.6383L35.0769 0H45.5769L39.3462 15.8237C41.8077 16.3627 43.8462 17.6332 45.4615 19.6353C47.1538 21.6373 48 23.9858 48 26.6809C48 29.7609 46.9231 32.4174 44.7692 34.6505C42.6154 36.8835 39.9615 38 36.8077 38Z" fill="var(--fill-0, #7097C1)"/>
</svg>
